<svg id="svg" version="1.1" xmlns="http://www.w3.org/2000/svg" xmlns:xlink="http://www.w3.org/1999/xlink" width="400" height="402.9850746268657" viewBox="0, 0, 400,402.9850746268657"><g id="svgg"><path id="path0" d="M108.963 83.248 C 107.276 83.454,104.000 84.613,104.000 85.002 C 104.000 85.064,105.267 85.424,106.816 85.804 C 112.819 87.275,117.730 91.689,119.890 97.556 C 120.425 99.010,121.157 100.920,121.516 101.800 C 122.093 103.214,122.194 106.912,122.385 133.600 C 122.639 169.215,122.024 166.053,128.954 167.379 C 130.591 167.692,132.621 168.298,133.465 168.726 C 134.309 169.154,135.810 169.636,136.800 169.798 C 137.790 169.960,139.500 170.445,140.600 170.875 C 147.015 173.386,147.844 173.578,149.215 172.865 L 150.494 172.200 150.583 129.400 C 150.631 105.860,150.745 86.174,150.835 85.653 C 151.247 83.286,150.934 83.247,129.993 83.118 C 119.539 83.053,110.075 83.111,108.963 83.248 M190.600 84.563 L 189.000 85.064 191.200 85.517 C 192.410 85.767,194.081 86.088,194.914 86.232 C 195.746 86.376,197.084 86.940,197.887 87.485 C 198.690 88.030,200.592 88.897,202.113 89.411 C 203.634 89.926,205.176 90.607,205.539 90.925 C 205.903 91.243,206.820 91.818,207.579 92.203 C 210.880 93.877,218.229 100.913,220.732 104.795 C 221.510 106.003,222.435 107.300,222.787 107.678 C 223.139 108.056,223.667 109.031,223.962 109.845 C 224.256 110.659,225.015 112.142,225.649 113.141 C 226.282 114.140,226.800 115.236,226.800 115.578 C 226.800 115.920,227.332 117.323,227.981 118.696 C 228.631 120.069,229.280 121.869,229.423 122.696 C 229.567 123.523,230.244 126.450,230.928 129.200 C 232.608 135.957,232.850 154.557,231.331 160.200 C 230.858 161.960,230.164 164.930,229.790 166.800 C 229.416 168.670,228.748 170.911,228.306 171.781 C 227.863 172.650,227.189 174.270,226.807 175.381 C 226.424 176.491,225.637 178.100,225.056 178.956 C 224.475 179.812,224.000 180.720,224.000 180.975 C 224.000 182.296,216.025 192.520,214.023 193.766 C 213.699 193.968,212.976 194.620,212.417 195.216 C 211.858 195.812,210.950 196.530,210.400 196.812 C 208.904 197.578,205.200 200.828,205.200 201.374 C 205.200 203.102,209.766 204.982,211.592 204.004 C 212.060 203.754,213.551 203.370,214.905 203.152 C 216.259 202.934,218.544 202.243,219.983 201.615 C 221.423 200.988,223.571 200.190,224.757 199.842 C 225.943 199.494,227.653 198.788,228.557 198.272 C 229.461 197.757,230.830 197.093,231.600 196.796 C 232.370 196.500,233.720 195.773,234.600 195.181 C 235.480 194.589,236.762 193.766,237.450 193.352 C 243.470 189.727,250.366 183.495,253.636 178.725 C 254.494 177.473,255.392 176.329,255.631 176.181 C 255.870 176.033,256.419 175.167,256.850 174.256 C 257.282 173.345,258.163 171.700,258.808 170.600 C 259.453 169.500,259.986 168.327,259.991 167.994 C 259.996 167.661,260.526 166.310,261.169 164.993 C 261.811 163.675,262.638 160.978,263.006 158.999 C 263.373 157.019,263.928 154.417,264.237 153.216 C 264.907 150.616,264.985 141.073,264.358 138.400 C 264.126 137.410,263.519 134.606,263.009 132.168 C 262.500 129.731,261.636 126.851,261.091 125.768 C 260.545 124.686,259.973 123.221,259.820 122.513 C 259.667 121.806,259.104 120.580,258.567 119.790 C 258.031 119.000,257.226 117.634,256.777 116.755 C 254.894 113.063,244.868 101.600,243.523 101.600 C 243.361 101.600,242.637 101.088,241.914 100.463 C 239.196 98.111,231.510 93.692,226.800 91.773 C 220.443 89.183,212.048 86.543,209.000 86.174 C 207.680 86.014,205.353 85.460,203.830 84.942 C 200.652 83.861,193.493 83.656,190.600 84.563 M87.700 170.436 C 86.737 171.445,87.197 171.943,89.500 172.385 C 93.731 173.199,95.297 173.633,96.846 174.424 C 97.693 174.856,100.171 175.641,102.354 176.170 C 104.536 176.698,106.745 177.405,107.261 177.740 C 107.778 178.076,109.514 178.712,111.121 179.155 C 112.727 179.598,114.617 180.313,115.321 180.744 C 116.024 181.174,117.405 181.741,118.390 182.003 C 119.374 182.265,121.174 182.977,122.390 183.585 C 123.605 184.193,125.255 184.902,126.055 185.161 C 126.856 185.420,128.746 186.255,130.255 187.015 C 131.765 187.775,133.290 188.398,133.644 188.399 C 133.998 188.399,134.968 188.861,135.799 189.425 C 136.630 189.989,138.050 190.737,138.955 191.087 C 139.860 191.438,140.877 191.959,141.215 192.247 C 141.553 192.534,142.723 193.161,143.815 193.639 C 144.907 194.118,146.326 194.890,146.968 195.355 C 147.610 195.820,148.991 196.650,150.036 197.200 C 156.121 200.403,157.566 201.222,157.797 201.596 C 157.939 201.824,158.717 202.371,159.527 202.810 C 160.986 203.602,163.700 205.416,166.400 207.406 C 168.014 208.594,169.919 209.922,172.200 211.446 C 173.080 212.034,174.467 213.074,175.283 213.758 C 176.099 214.441,177.589 215.630,178.593 216.400 C 185.690 221.838,202.928 238.029,206.061 242.200 C 206.556 242.860,208.202 244.840,209.718 246.600 C 214.889 252.605,218.648 257.448,220.626 260.653 C 221.081 261.389,221.825 262.398,222.280 262.896 C 222.734 263.393,223.379 264.340,223.712 265.000 C 224.322 266.208,226.578 269.761,227.892 271.581 C 228.912 272.995,231.328 277.345,232.927 280.648 C 233.686 282.214,234.494 283.611,234.723 283.752 C 234.952 283.894,235.446 284.952,235.821 286.105 C 236.196 287.257,236.742 288.476,237.035 288.814 C 237.328 289.151,238.033 290.411,238.602 291.614 C 239.172 292.816,240.258 294.700,241.017 295.800 C 241.775 296.900,243.018 298.700,243.777 299.800 C 248.490 306.623,255.541 313.189,260.800 315.651 C 271.226 320.533,274.598 321.119,293.200 321.282 C 300.570 321.347,306.846 321.241,307.147 321.047 C 307.994 320.501,301.725 317.021,298.759 316.391 C 297.422 316.108,295.704 315.452,294.941 314.934 C 294.178 314.416,292.863 313.640,292.018 313.209 C 291.174 312.779,290.236 312.179,289.933 311.876 C 289.630 311.573,288.666 310.866,287.791 310.305 C 284.895 308.449,277.600 300.834,277.600 299.668 C 277.600 299.479,277.222 298.982,276.759 298.563 C 276.297 298.144,275.645 297.261,275.312 296.601 C 274.978 295.940,274.007 294.483,273.153 293.363 C 272.299 292.243,271.600 291.159,271.600 290.954 C 271.600 290.750,271.085 289.956,270.457 289.191 C 269.828 288.426,268.941 287.068,268.486 286.173 C 268.031 285.279,267.363 284.302,267.003 284.002 C 266.642 283.703,266.063 282.905,265.716 282.229 C 265.368 281.553,264.741 280.550,264.322 280.000 C 263.903 279.450,262.590 277.470,261.406 275.600 C 260.221 273.730,258.816 271.660,258.282 271.000 C 257.749 270.340,256.992 269.170,256.601 268.400 C 256.209 267.630,255.374 266.409,254.745 265.686 C 254.115 264.963,253.600 264.177,253.600 263.939 C 253.600 263.701,253.105 262.926,252.500 262.217 C 251.895 261.508,250.903 260.134,250.296 259.164 C 249.177 257.377,247.580 255.096,246.681 254.000 C 246.410 253.670,245.754 252.770,245.224 252.000 C 244.693 251.230,243.858 250.150,243.367 249.600 C 234.354 239.496,229.387 234.545,221.198 227.501 C 218.449 225.137,215.850 222.887,215.422 222.501 C 214.993 222.116,214.235 221.521,213.735 221.181 C 213.236 220.841,212.236 220.086,211.514 219.504 C 207.078 215.931,203.183 213.061,200.054 211.061 C 199.314 210.587,197.694 209.521,196.454 208.690 C 195.214 207.860,193.684 206.870,193.053 206.490 C 192.423 206.111,190.893 205.125,189.653 204.301 C 188.414 203.476,187.189 202.801,186.931 202.801 C 186.673 202.800,185.923 202.347,185.265 201.793 C 184.606 201.239,183.108 200.322,181.934 199.754 C 180.760 199.186,178.360 197.940,176.600 196.986 C 174.840 196.031,172.410 194.786,171.200 194.219 C 169.990 193.653,168.640 192.983,168.200 192.732 C 165.877 191.405,159.774 188.628,157.800 188.000 C 156.920 187.720,155.382 187.081,154.383 186.581 C 153.384 186.080,151.494 185.362,150.183 184.984 C 148.872 184.607,146.977 183.884,145.971 183.378 C 144.966 182.873,142.997 182.162,141.595 181.799 C 140.194 181.436,138.407 180.815,137.624 180.419 C 136.841 180.023,135.210 179.491,134.000 179.237 C 132.790 178.984,130.180 178.254,128.200 177.616 C 123.906 176.233,110.307 172.970,107.200 172.577 C 105.990 172.424,103.650 171.856,102.000 171.314 C 98.339 170.112,88.582 169.513,87.700 170.436 M122.992 196.816 C 122.479 197.807,122.399 204.449,122.389 246.480 C 122.377 300.042,122.356 300.611,120.195 306.012 C 117.883 311.790,115.519 314.489,110.789 316.748 C 105.458 319.294,103.395 320.681,104.444 321.014 C 105.854 321.461,167.788 321.358,168.594 320.907 C 169.175 320.582,169.088 320.451,167.983 319.993 C 167.274 319.699,166.221 319.061,165.643 318.575 C 165.066 318.089,163.448 317.209,162.048 316.620 C 159.863 315.701,155.600 312.304,155.600 311.482 C 155.600 311.358,154.952 310.170,154.160 308.841 C 153.123 307.099,152.520 305.387,152.002 302.712 C 150.425 294.566,150.361 292.530,150.401 251.809 C 150.423 230.024,150.431 211.705,150.420 211.100 C 150.394 209.658,147.705 207.031,144.892 205.698 C 143.733 205.149,142.685 204.538,142.563 204.340 C 142.441 204.143,141.229 203.440,139.871 202.779 C 138.512 202.118,136.770 201.232,136.000 200.811 C 132.244 198.756,127.827 196.780,125.816 196.255 L 123.583 195.672 122.992 196.816 " stroke="none" fill="#090909" fill-rule="evenodd"></path><path id="path1" d="M37.600 0.782 C 37.600 1.476,37.272 1.578,34.700 1.682 L 31.800 1.800 31.675 3.100 C 31.562 4.268,31.420 4.400,30.275 4.402 C 27.660 4.407,25.990 5.150,25.735 6.423 C 25.523 7.483,25.346 7.600,23.950 7.600 C 22.445 7.600,22.400 7.641,22.400 9.000 C 22.400 10.333,22.333 10.400,21.000 10.400 C 19.633 10.400,19.600 10.438,19.600 12.000 L 19.600 13.600 17.229 13.600 C 14.698 13.600,13.600 14.211,13.600 15.617 C 13.600 16.139,13.192 16.483,12.300 16.714 C 10.905 17.075,10.542 17.896,10.447 20.900 C 10.402 22.339,10.343 22.400,9.000 22.400 C 7.668 22.400,7.600 22.468,7.600 23.792 C 7.600 24.986,7.443 25.219,6.500 25.426 C 4.526 25.858,4.400 25.961,4.400 27.144 C 4.400 28.085,4.186 28.367,3.304 28.588 C 1.830 28.958,1.613 29.407,1.606 32.100 C 1.601 34.131,1.507 34.400,0.800 34.400 C 0.001 34.400,0.000 34.667,0.000 201.400 C 0.000 366.887,0.007 368.400,0.782 368.400 C 1.476 368.400,1.578 368.728,1.682 371.300 L 1.800 374.200 3.040 374.321 C 4.248 374.439,4.288 374.509,4.640 377.109 C 4.985 379.663,5.055 379.792,6.300 380.146 C 7.435 380.469,7.600 380.686,7.600 381.858 C 7.600 383.121,7.681 383.200,8.976 383.200 C 10.277 383.200,10.358 383.281,10.476 384.700 C 10.593 386.119,10.681 386.207,12.100 386.324 C 13.519 386.442,13.600 386.523,13.600 387.824 C 13.600 389.125,13.675 389.200,14.976 389.200 C 16.277 389.200,16.358 389.281,16.476 390.700 C 16.593 392.114,16.685 392.207,18.076 392.323 C 19.413 392.434,19.564 392.566,19.676 393.723 L 19.800 395.000 22.390 395.121 C 25.148 395.251,25.584 395.547,25.594 397.300 C 25.599 398.289,25.741 398.400,27.000 398.400 C 28.194 398.400,28.400 398.535,28.400 399.320 C 28.400 400.926,29.110 401.200,33.280 401.200 C 36.933 401.200,37.200 401.254,37.200 402.000 C 37.200 402.799,37.467 402.800,200.000 402.800 C 362.533 402.800,362.800 402.799,362.800 402.000 C 362.800 401.277,363.067 401.200,365.572 401.200 C 368.190 401.200,368.425 401.122,369.827 399.800 C 370.644 399.030,371.722 398.400,372.223 398.400 C 373.902 398.400,374.400 397.979,374.400 396.557 C 374.400 395.240,374.448 395.200,376.000 395.200 C 377.562 395.200,377.600 395.167,377.600 393.800 C 377.600 392.457,377.661 392.398,379.100 392.353 C 382.088 392.258,382.925 391.892,383.280 390.525 C 383.555 389.464,383.827 389.229,384.905 389.125 C 386.048 389.015,386.224 388.836,386.400 387.603 C 386.569 386.424,386.787 386.174,387.800 386.002 C 388.948 385.806,389.016 385.682,389.363 383.099 L 389.726 380.400 391.063 380.400 C 392.353 380.400,392.400 380.344,392.400 378.824 C 392.400 377.292,392.442 377.245,393.900 377.124 L 395.400 377.000 395.518 374.300 C 395.620 371.970,395.739 371.600,396.386 371.600 C 398.170 371.600,398.400 371.230,398.400 368.357 C 398.400 365.867,398.477 365.600,399.200 365.600 C 399.999 365.600,400.000 365.333,400.000 201.600 C 400.000 39.091,399.993 37.600,399.218 37.600 C 398.524 37.600,398.422 37.272,398.318 34.700 L 398.200 31.800 396.900 31.675 C 395.707 31.560,395.600 31.435,395.600 30.162 C 395.600 28.066,394.621 26.071,393.448 25.776 C 392.638 25.573,392.420 25.241,392.322 24.062 C 392.211 22.735,392.080 22.588,390.900 22.475 C 389.710 22.360,389.600 22.233,389.600 20.975 C 389.600 19.638,389.556 19.600,388.000 19.600 L 386.400 19.600 386.400 18.000 C 386.400 16.438,386.367 16.400,385.000 16.400 C 383.667 16.400,383.600 16.333,383.600 15.000 C 383.600 13.637,383.558 13.600,382.024 13.600 C 380.492 13.600,380.445 13.558,380.324 12.100 C 380.211 10.731,380.087 10.589,378.900 10.475 C 377.946 10.383,377.600 10.152,377.600 9.607 C 377.600 7.833,377.226 7.600,374.381 7.600 L 371.648 7.600 371.524 6.100 L 371.400 4.600 368.500 4.482 L 365.600 4.365 365.600 2.982 L 365.600 1.600 362.600 1.600 C 359.867 1.600,359.600 1.529,359.600 0.800 C 359.600 0.001,359.333 0.000,198.600 0.000 C 39.069 0.000,37.600 0.007,37.600 0.782 M150.000 83.971 C 150.705 84.489,150.951 84.986,150.835 85.653 C 150.745 86.174,150.631 105.860,150.583 129.400 L 150.494 172.200 149.215 172.865 C 147.844 173.578,147.015 173.386,140.600 170.875 C 139.500 170.445,137.790 169.960,136.800 169.798 C 135.810 169.636,134.309 169.154,133.465 168.726 C 132.621 168.298,130.591 167.692,128.954 167.379 C 122.024 166.053,122.639 169.215,122.385 133.600 C 122.194 106.912,122.093 103.214,121.516 101.800 C 121.157 100.920,120.425 99.010,119.890 97.556 C 117.730 91.689,112.819 87.275,106.816 85.804 C 103.522 84.997,103.595 85.083,105.471 84.193 C 108.638 82.690,147.991 82.493,150.000 83.971 M203.830 84.942 C 205.353 85.460,207.680 86.014,209.000 86.174 C 214.683 86.861,228.051 91.801,234.286 95.518 C 239.577 98.672,240.643 99.363,241.914 100.463 C 242.637 101.088,243.361 101.600,243.523 101.600 C 244.868 101.600,254.894 113.063,256.777 116.755 C 257.226 117.634,258.031 119.000,258.567 119.790 C 259.104 120.580,259.667 121.806,259.820 122.513 C 259.973 123.221,260.545 124.686,261.091 125.768 C 261.636 126.851,262.500 129.731,263.009 132.168 C 263.519 134.606,264.126 137.410,264.358 138.400 C 264.985 141.073,264.907 150.616,264.237 153.216 C 263.928 154.417,263.373 157.019,263.006 158.999 C 262.638 160.978,261.811 163.675,261.169 164.993 C 260.526 166.310,259.996 167.661,259.991 167.994 C 259.986 168.327,259.453 169.500,258.808 170.600 C 258.163 171.700,257.282 173.345,256.850 174.256 C 256.419 175.167,255.870 176.033,255.631 176.181 C 255.392 176.329,254.494 177.473,253.636 178.725 C 250.366 183.495,243.470 189.727,237.450 193.352 C 236.762 193.766,235.480 194.589,234.600 195.181 C 233.720 195.773,232.370 196.500,231.600 196.796 C 230.830 197.093,229.461 197.757,228.557 198.272 C 227.653 198.788,225.943 199.494,224.757 199.842 C 223.571 200.190,221.423 200.988,219.983 201.615 C 218.544 202.243,216.259 202.934,214.905 203.152 C 213.551 203.370,212.060 203.754,211.592 204.004 C 209.766 204.982,205.200 203.102,205.200 201.374 C 205.200 200.828,208.904 197.578,210.400 196.812 C 210.950 196.530,211.858 195.812,212.417 195.216 C 212.976 194.620,213.699 193.968,214.023 193.766 C 216.025 192.520,224.000 182.296,224.000 180.975 C 224.000 180.720,224.475 179.812,225.056 178.956 C 225.637 178.100,226.424 176.491,226.807 175.381 C 227.189 174.270,227.863 172.650,228.306 171.781 C 228.748 170.911,229.416 168.670,229.790 166.800 C 230.164 164.930,230.858 161.960,231.331 160.200 C 232.850 154.557,232.608 135.957,230.928 129.200 C 230.244 126.450,229.567 123.523,229.423 122.696 C 229.280 121.869,228.631 120.069,227.981 118.696 C 227.332 117.323,226.800 115.920,226.800 115.578 C 226.800 115.236,226.282 114.140,225.649 113.141 C 225.015 112.142,224.256 110.659,223.962 109.845 C 223.667 109.031,223.139 108.056,222.787 107.678 C 222.435 107.300,221.510 106.003,220.732 104.795 C 218.229 100.913,210.880 93.877,207.579 92.203 C 206.820 91.818,205.903 91.243,205.539 90.925 C 205.176 90.607,203.634 89.926,202.113 89.411 C 200.592 88.897,198.690 88.030,197.887 87.485 C 197.084 86.940,195.746 86.376,194.914 86.232 C 194.081 86.088,192.410 85.767,191.200 85.517 L 189.000 85.064 190.600 84.563 C 193.493 83.656,200.652 83.861,203.830 84.942 M102.000 171.314 C 103.650 171.856,105.990 172.424,107.200 172.577 C 110.307 172.970,123.906 176.233,128.200 177.616 C 130.180 178.254,132.790 178.984,134.000 179.237 C 135.210 179.491,136.841 180.023,137.624 180.419 C 138.407 180.815,140.194 181.436,141.595 181.799 C 142.997 182.162,144.966 182.873,145.971 183.378 C 146.977 183.884,148.872 184.607,150.183 184.984 C 151.494 185.362,153.384 186.080,154.383 186.581 C 155.382 187.081,156.920 187.720,157.800 188.000 C 159.774 188.628,165.877 191.405,168.200 192.732 C 168.640 192.983,169.990 193.653,171.200 194.219 C 172.410 194.786,174.840 196.031,176.600 196.986 C 178.360 197.940,180.760 199.186,181.934 199.754 C 183.108 200.322,184.606 201.239,185.265 201.793 C 185.923 202.347,186.673 202.800,186.931 202.801 C 187.189 202.801,188.414 203.476,189.653 204.301 C 190.893 205.125,192.423 206.111,193.053 206.490 C 193.684 206.870,195.214 207.860,196.454 208.690 C 197.694 209.521,199.314 210.587,200.054 211.061 C 203.183 213.061,207.078 215.931,211.514 219.504 C 212.236 220.086,213.236 220.841,213.735 221.181 C 214.235 221.521,214.993 222.116,215.422 222.501 C 215.850 222.887,218.449 225.137,221.198 227.501 C 229.387 234.545,234.354 239.496,243.367 249.600 C 243.858 250.150,244.693 251.230,245.224 252.000 C 245.754 252.770,246.410 253.670,246.681 254.000 C 247.580 255.096,249.177 257.377,250.296 259.164 C 250.903 260.134,251.895 261.508,252.500 262.217 C 253.105 262.926,253.600 263.701,253.600 263.939 C 253.600 264.177,254.115 264.963,254.745 265.686 C 255.374 266.409,256.209 267.630,256.601 268.400 C 256.992 269.170,257.749 270.340,258.282 271.000 C 258.816 271.660,260.221 273.730,261.406 275.600 C 262.590 277.470,263.903 279.450,264.322 280.000 C 264.741 280.550,265.368 281.553,265.716 282.229 C 266.063 282.905,266.642 283.703,267.003 284.002 C 267.363 284.302,268.031 285.279,268.486 286.173 C 268.941 287.068,269.828 288.426,270.457 289.191 C 271.085 289.956,271.600 290.750,271.600 290.954 C 271.600 291.159,272.299 292.243,273.153 293.363 C 274.007 294.483,274.978 295.940,275.312 296.601 C 275.645 297.261,276.297 298.144,276.759 298.563 C 277.222 298.982,277.600 299.479,277.600 299.668 C 277.600 300.834,284.895 308.449,287.791 310.305 C 288.666 310.866,289.630 311.573,289.933 311.876 C 290.236 312.179,291.174 312.779,292.018 313.209 C 292.863 313.640,294.178 314.416,294.941 314.934 C 295.704 315.452,297.422 316.108,298.759 316.391 C 301.725 317.021,307.994 320.501,307.147 321.047 C 306.846 321.241,300.570 321.347,293.200 321.282 C 274.598 321.119,271.226 320.533,260.800 315.651 C 255.541 313.189,248.490 306.623,243.777 299.800 C 243.018 298.700,241.775 296.900,241.017 295.800 C 240.258 294.700,239.172 292.816,238.602 291.614 C 238.033 290.411,237.328 289.151,237.035 288.814 C 236.742 288.476,236.196 287.257,235.821 286.105 C 235.446 284.952,234.952 283.894,234.723 283.752 C 234.494 283.611,233.686 282.214,232.927 280.648 C 231.328 277.345,228.912 272.995,227.892 271.581 C 226.578 269.761,224.322 266.208,223.712 265.000 C 223.379 264.340,222.734 263.393,222.280 262.896 C 221.825 262.398,221.081 261.389,220.626 260.653 C 218.648 257.448,214.889 252.605,209.718 246.600 C 208.202 244.840,206.556 242.860,206.061 242.200 C 202.928 238.029,185.690 221.838,178.593 216.400 C 177.589 215.630,176.099 214.441,175.283 213.758 C 174.467 213.074,173.080 212.034,172.200 211.446 C 169.919 209.922,168.014 208.594,166.400 207.406 C 163.700 205.416,160.986 203.602,159.527 202.810 C 158.717 202.371,157.939 201.824,157.797 201.596 C 157.566 201.222,156.121 200.403,150.036 197.200 C 148.991 196.650,147.610 195.820,146.968 195.355 C 146.326 194.890,144.907 194.118,143.815 193.639 C 142.723 193.161,141.553 192.534,141.215 192.247 C 140.877 191.959,139.860 191.438,138.955 191.087 C 138.050 190.737,136.630 189.989,135.799 189.425 C 134.968 188.861,133.998 188.399,133.644 188.399 C 133.290 188.398,131.765 187.775,130.255 187.015 C 128.746 186.255,126.856 185.420,126.055 185.161 C 125.255 184.902,123.605 184.193,122.390 183.585 C 121.174 182.977,119.374 182.265,118.390 182.003 C 117.405 181.741,116.024 181.174,115.321 180.744 C 114.617 180.313,112.727 179.598,111.121 179.155 C 109.514 178.712,107.778 178.076,107.261 177.740 C 106.745 177.405,104.536 176.698,102.354 176.170 C 100.171 175.641,97.693 174.856,96.846 174.424 C 95.297 173.633,93.731 173.199,89.500 172.385 C 87.197 171.943,86.737 171.445,87.700 170.436 C 88.582 169.513,98.339 170.112,102.000 171.314 M131.324 198.441 C 133.126 199.323,135.230 200.390,136.000 200.811 C 136.770 201.232,138.512 202.118,139.871 202.779 C 141.229 203.440,142.441 204.143,142.563 204.340 C 142.685 204.538,143.733 205.149,144.892 205.698 C 147.705 207.031,150.394 209.658,150.420 211.100 C 150.431 211.705,150.423 230.024,150.401 251.809 C 150.361 292.530,150.425 294.566,152.002 302.712 C 152.520 305.387,153.123 307.099,154.160 308.841 C 154.952 310.170,155.600 311.358,155.600 311.482 C 155.600 312.304,159.863 315.701,162.048 316.620 C 163.448 317.209,165.066 318.089,165.643 318.575 C 166.221 319.061,167.274 319.699,167.983 319.993 C 169.088 320.451,169.175 320.582,168.594 320.907 C 167.788 321.358,105.854 321.461,104.444 321.014 C 103.395 320.681,105.458 319.294,110.789 316.748 C 115.519 314.489,117.883 311.790,120.195 306.012 C 122.356 300.611,122.377 300.042,122.389 246.480 C 122.399 204.449,122.479 197.807,122.992 196.816 L 123.583 195.672 125.816 196.255 C 127.044 196.575,129.522 197.559,131.324 198.441 " stroke="none" fill="#fbfbfb" fill-rule="evenodd"></path></g></svg>